<?xml version="1.0" encoding="UTF-8"?>
<!DOCTYPE svg PUBLIC "-//W3C//DTD SVG 1.1//EN" "http://www.w3.org/Graphics/SVG/1.1/DTD/svg11.dtd">
<!-- Creator: CorelDRAW -->
<svg xmlns="http://www.w3.org/2000/svg" xml:space="preserve" width="8.26772in" height="11.6929in" version="1.1" style="shape-rendering:geometricPrecision; text-rendering:geometricPrecision; image-rendering:optimizeQuality; fill-rule:evenodd; clip-rule:evenodd"
viewBox="0 0 8267.72 11692.91"
 xmlns:xlink="http://www.w3.org/1999/xlink"
 xmlns:xodm="http://www.corel.com/coreldraw/odm/2003">
 <defs>
  <style type="text/css">
   <![CDATA[
    .fil0 {fill:#373435}
   ]]>
  </style>
 </defs>
 <g id="Layer_x0020_1">
  <metadata id="CorelCorpID_0Corel-Layer"/>
  <path class="fil0" d="M4701.81 4251.13l743.05 0c272.28,0 494.17,221.89 494.17,494.17l0 153.18c0,272.28 -221.89,494.17 -494.17,494.17l-743.05 0 0 2555.15c0,272.28 -221.89,494.17 -494.17,494.17l-153.18 0c-272.28,0 -494.18,-221.89 -494.18,-494.17l0 -2555.15 -743.04 0c-272.28,0 -494.17,-221.89 -494.17,-494.17l0 -153.18c0,-272.28 221.89,-494.17 494.17,-494.17l743.04 0 0 -505.61c0,-272.28 221.9,-494.17 494.18,-494.17l153.18 0c272.28,0 494.17,221.89 494.17,494.17l0 505.61z"/>
 </g>
</svg>
