<?xml version="1.0" encoding="UTF-8"?>
<!DOCTYPE svg PUBLIC "-//W3C//DTD SVG 1.1//EN" "http://www.w3.org/Graphics/SVG/1.1/DTD/svg11.dtd">
<!-- Creator: CorelDRAW -->
<svg xmlns="http://www.w3.org/2000/svg" xml:space="preserve" width="8.26772in" height="11.6929in" version="1.1" style="shape-rendering:geometricPrecision; text-rendering:geometricPrecision; image-rendering:optimizeQuality; fill-rule:evenodd; clip-rule:evenodd"
viewBox="0 0 8267.72 11692.91"
 xmlns:xlink="http://www.w3.org/1999/xlink"
 xmlns:xodm="http://www.corel.com/coreldraw/odm/2003">
 <defs>
  <style type="text/css">
   <![CDATA[
    .fil0 {fill:#373435}
   ]]>
  </style>
 </defs>
 <g id="Layer_x0020_1">
  <metadata id="CorelCorpID_0Corel-Layer"/>
  <path class="fil0" d="M2680.13 7244.11c-91.96,34.67 -182.26,73.27 -270.69,116.18 -83.59,40.56 -166.3,82.89 -250.03,123.13 -60.92,29.28 -132.16,12.22 -173.22,-41.46 -135.04,-176.56 -248.92,-383.13 -332.98,-588.54 -57.64,-140.86 -100.56,-290.35 -134.6,-438.59 -18.99,-82.68 -34.9,-166.16 -45.58,-250.33 -1.5,-11.8 -2.9,-23.61 -4.19,-35.44 -4.5,-41.39 7.56,-78.74 35.4,-109.69 27.85,-30.94 63.74,-46.85 105.37,-46.71l770.62 2.57c72.12,0.24 131.89,53.95 139.8,125.64 7.26,65.77 15.17,131.48 24.74,196.95 16.82,115.14 39.34,229.31 69.43,341.74 31.72,118.54 71.05,234.11 117.22,347.78 9.57,23.58 19.46,47.03 29.24,70.53 15.24,36.65 14.98,73.76 -0.77,110.19 -15.75,36.44 -42.61,62.05 -79.75,76.05zm2477.63 -3866.38c86.44,36.84 171.41,77.32 254.82,120.57 121.6,63.04 234.59,142.13 343.45,224.88 39.8,30.25 78.57,61.85 116.66,94.21 37.57,31.93 54.95,76.93 48.56,125.82 -6.38,48.89 -34.73,87.93 -79.24,109.14 -34.72,16.54 -69.54,32.89 -104.54,48.85 -60.98,27.81 -122.33,54.83 -184.8,79.15 -3.15,1.22 -6.29,2.45 -9.44,3.67 -65.24,25.32 -137.87,-0.13 -173.06,-60.63 -7.77,-13.36 -15.7,-26.68 -24.24,-39.57 -47.48,-71.67 -94.76,-143.5 -144.02,-213.97 -50.21,-71.84 -102.74,-142.02 -157.36,-210.57 -16.29,-20.44 -32.95,-40.58 -49.84,-60.52 -42.8,-50.53 -45.19,-121.69 -5.89,-174.98 39.31,-53.29 107.99,-72.02 168.91,-46.06zm711.04 4492.9l-115.84 100.7c-1.75,1.52 -3.27,2.78 -5.09,4.22 -78.95,62.38 -165,116.27 -252.15,166.36 -105.76,60.79 -214.96,115.76 -326.52,165.08 -17.14,7.58 -34.34,15.02 -51.59,22.33 -60.53,25.61 -128.54,7.25 -167.95,-45.35 -39.41,-52.6 -37.92,-123.04 3.68,-173.93 98.51,-120.52 193.11,-244.22 283.05,-371.26 0.31,-0.44 0.6,-0.87 0.89,-1.33l116.23 -183.66c36.47,-57.63 106.96,-80.79 170.51,-56.02 2.2,0.86 4.4,1.72 6.6,2.57 66.14,25.69 131,54.5 195.46,84.14 37.28,17.14 74.36,34.68 111.33,52.46 44.1,21.21 72.18,59.88 78.7,108.38 6.52,48.5 -10.35,93.21 -47.28,125.31zm-2500.28 -4317.07c-17.19,21.91 -34.2,43.95 -51.02,66.16 -87.6,115.7 -169.48,235.6 -247.58,357.88 -29.84,46.71 -56.17,95.9 -83.91,143.89 -6.54,11.31 -13.09,22.63 -19.67,33.92 -34.73,59.63 -105.69,85.22 -170.48,61.5 -83.94,-30.74 -167.07,-63.82 -248.64,-100.43 -45.29,-20.33 -90.75,-40.28 -135.91,-60.91 -45.71,-20.89 -75,-60.69 -81.34,-110.55 -6.34,-49.86 12.05,-95.73 51.08,-127.39 41.07,-33.33 83.35,-65.15 126.13,-96.25 64.7,-47.05 130.74,-92.25 197.92,-135.68 51.54,-33.32 103.55,-66.05 157.45,-95.46 110.96,-60.55 227.38,-112.15 345.86,-156.1 60.11,-22.3 125.3,-2.66 163.09,49.13 37.79,51.8 36.59,119.87 -2.99,170.3zm-19.68 3749.75c75.07,-16.8 150.67,-31.26 226.59,-43.64 92.2,-15.04 185.11,-27.4 278.38,-33.33 40.43,-2.57 76.18,10.31 105.67,38.07 29.5,27.76 44.52,62.66 44.41,103.17l-2.05 733.7c-0.17,60.04 -35.81,111.09 -92.11,131.94 -56.3,20.85 -116.6,5.33 -155.83,-40.11 -66.2,-76.68 -129.3,-155.95 -190.74,-236.48 -78.51,-102.91 -152.3,-209.52 -223.83,-317.38 -27.2,-41.01 -54,-82.29 -79.82,-124.19 -24.69,-40.08 -28.17,-85.5 -9.87,-128.88 18.3,-43.37 53.26,-72.58 99.2,-82.86zm-929.72 328.83c48.41,-22.73 97.18,-44.69 146.16,-66.17 73.83,-32.37 148.15,-63.68 223.43,-92.54 6.25,-2.4 12.5,-4.78 18.76,-7.13 66.8,-25.15 140.85,2.83 174.34,65.86 6.57,12.36 13.19,24.7 20.09,36.86 113.26,199.45 242.22,390.28 383.46,570.97 39.38,50.37 40.56,118.18 2.96,169.89 -37.59,51.72 -102.46,71.51 -162.52,49.59 -120.68,-44.04 -241,-95.73 -352.85,-159.04 -122.46,-69.31 -240.12,-145.05 -354.36,-227.18 -46.04,-33.1 -89.65,-69.8 -132.34,-107.09 -36.98,-32.3 -53.73,-77.28 -46.9,-125.91 6.83,-48.63 35.33,-87.25 79.77,-108.12zm824.58 -3463.52c28.72,-45.79 58.63,-90.81 88.99,-135.53 72.44,-106.73 146.72,-212.55 226.17,-314.2 30.69,-39.27 63.07,-77.15 95.41,-115.06 34.03,-39.9 68.39,-79.5 103.06,-118.84 39.57,-44.91 99.75,-59.86 155.74,-38.71 55.99,21.15 91.25,72.15 91.26,132.01l0.06 735.08c0,41.06 -15.56,76.39 -45.84,104.11 -30.29,27.72 -66.86,40.1 -107.76,36.47 -4.69,-0.42 -9.38,-0.83 -14.06,-1.26 -91.22,-8.16 -182.2,-19 -272.86,-31.98 -76.63,-10.96 -153.11,-23.3 -228.95,-38.85 -46.75,-9.59 -82.64,-38.87 -101.41,-82.75 -18.76,-43.88 -15.15,-90.06 10.2,-130.49zm1823.34 3381.76c-1.13,1.64 -2.26,3.28 -3.39,4.92 -62.28,90.36 -130.07,176.78 -199.38,261.82 -116.09,142.44 -237.83,280.08 -359.76,417.52 -39.68,44.73 -99.81,59.5 -155.71,38.26 -55.89,-21.24 -91.03,-72.24 -90.98,-132.03l0.59 -766.12c0.03,-40.83 15.44,-75.96 45.45,-103.63 30.01,-27.68 66.27,-40.2 106.97,-36.93 105.41,8.46 210.24,24.64 314.18,43.82 86.75,16.01 173.04,34.54 258.79,55.2 46.59,11.22 81.57,41.94 98.72,86.69 17.15,44.74 11.66,90.98 -15.49,130.47zm-812.26 -3239.67c-2.35,-153.24 -2.35,-306.51 -1.9,-459.76 0.31,-107.48 1.02,-214.95 1.87,-322.43 0.46,-58.3 34.12,-107.82 88.16,-129.7 54.05,-21.88 112.68,-9.72 153.56,31.85 44.3,45.03 92.16,83.92 133.72,132.3 107.26,124.87 212.66,251.42 313.7,381.39 49.52,63.71 98.15,128.16 143.89,194.67 27.42,39.88 32.76,86.72 15,131.74 -17.76,45.02 -53.63,75.61 -100.89,86.04 -92.22,20.33 -185.3,36.56 -278.59,51.13 -97.96,15.3 -196.25,28.62 -294.85,39.1 -6.06,0.64 -12.13,1.28 -18.19,1.9 -40.8,4.18 -77.49,-7.67 -108.13,-34.92 -30.65,-27.25 -46.72,-62.3 -47.35,-103.3zm-1253.2 2707.04c-12.82,-29.69 -24.42,-59.89 -35.48,-90.27 -40.94,-112.46 -74.08,-227.78 -103.56,-343.73 -30.69,-120.72 -57.25,-242.66 -77.27,-365.63 -4.69,-28.78 -9.02,-57.62 -12.76,-86.54 -5.41,-41.72 6.2,-79.74 33.98,-111.33 27.78,-31.59 64.01,-47.96 106.08,-47.93l950.24 0.77c38.92,0.03 72.41,13.96 99.87,41.54 27.47,27.57 41.26,61.11 41.14,100.04l-2.3 726.24c-0.23,74.01 -57.16,134.99 -130.98,140.31 -123.28,8.89 -246.31,20.95 -368.28,41.25 -80.99,13.48 -160.95,33.06 -240.61,52.77 -32.8,8.12 -65.57,16.33 -98.46,24 -67.1,15.65 -134.31,-18.24 -161.63,-81.49zm-238.97 -1454.42c3.45,-35.71 8.03,-71.3 13.22,-106.79 16.89,-115.48 41.43,-229.85 70.41,-342.87 28.3,-110.35 60.95,-219.68 98.94,-327.09 13.38,-37.81 27.22,-75.47 42.23,-112.68 26.16,-64.88 94.36,-100.44 162.53,-84.75 49.06,11.29 98.06,22.88 147.02,34.6 65.84,15.77 131.73,31.68 198.25,44.37 123.4,23.55 249.25,34.78 374.54,42.31 74.6,4.48 132.62,66.06 132.67,140.79l0.41 725.7c0.05,77.76 -63.38,141.21 -141.14,141.2l-958.61 -0.11c-41.24,-0 -76.74,-15.72 -104.46,-46.26 -27.72,-30.54 -39.96,-67.38 -35.99,-108.43zm2922.06 -1175.15c7.17,-2.94 14.33,-5.87 21.5,-8.8 59.13,-24.12 118.79,-47.01 177.64,-71.82 61.24,-25.81 120.26,-58.08 179.62,-87.95 10.87,-5.46 21.75,-10.92 32.66,-16.3 61.98,-30.57 135.41,-12.59 176.26,43.16 52.18,71.22 102.36,143.74 147.76,219.51 184.69,308.23 336.89,738.33 371.16,1097.3 3.92,41.09 -8.37,77.95 -36.17,108.46 -27.8,30.51 -63.36,46.17 -104.64,46.07l-640.75 -1.49c-73.39,-0.17 -134.02,-55.96 -140.28,-129.09 -6.06,-70.81 -13.05,-141.57 -22.46,-212.02 -16.09,-120.43 -40.05,-239.41 -74.62,-355.95 -31.52,-106.24 -66.93,-211.27 -106.38,-314.83 -16.25,-42.64 -35.74,-84.13 -55.24,-125.36 -17.17,-36.3 -18.54,-73.89 -4.03,-111.33 14.5,-37.44 40.83,-64.31 77.98,-79.57zm-95.99 2713.69c20.59,-44.35 41.23,-88.86 58.91,-134.48 62.75,-161.87 120.26,-325.95 157.87,-495.71 27.31,-123.28 44.72,-248.65 58.82,-374.06 8.06,-71.74 68.05,-125.36 140.24,-125.36l648.47 0c41.27,0 76.79,15.74 104.52,46.3 27.73,30.57 39.94,67.45 35.94,108.53 -12.72,130.4 -40.52,262.01 -74.41,388.57 -31.17,116.39 -68.8,233.47 -113.85,345.26 -50.79,126.02 -115.38,248.16 -184.6,364.96 -36.43,61.47 -74.82,121.84 -116.13,180.16 -9.07,12.81 -18.26,25.53 -27.63,38.12 -40.73,54.73 -112.81,72.5 -174.31,42.96 -17.04,-8.19 -33.99,-16.54 -50.96,-24.87 -60.28,-29.63 -120.41,-60.06 -182.3,-86.22 -59.61,-25.2 -119.94,-48.67 -179.79,-73.29 -8.96,-3.69 -17.91,-7.38 -26.86,-11.09 -36.85,-15.28 -62.95,-41.96 -77.44,-79.13 -14.48,-37.17 -13.3,-74.48 3.5,-110.66zm-1330.82 -258.26l1.18 -730.2c0.13,-77.73 63.63,-141.02 141.35,-140.9l1072.5 1.76c41.85,0.07 77.85,16.34 105.56,47.71 27.7,31.37 39.39,69.11 34.28,110.65 -6.31,51.24 -14.88,102.19 -24.59,152.89 -21.25,110.96 -48.82,220.76 -80.93,329.06 -28.91,97.52 -65,193.13 -102.3,287.71 -19.29,48.92 -39.29,97.57 -61.15,145.4 -28.69,62.78 -96.82,95.24 -163.65,77.98 -38.94,-10.06 -77.72,-20.71 -116.55,-31.18 -86.61,-23.35 -173.69,-45.8 -262.05,-61.56 -137.04,-24.44 -275.71,-36.86 -414.31,-48.47 -73.42,-6.15 -129.47,-67.19 -129.35,-140.86zm129.84 -2139.73c143.67,-12.53 287.41,-26.26 429.29,-52.87 100.61,-18.87 199.94,-44.18 298.73,-70.81 25.29,-6.81 50.48,-13.98 75.73,-20.96 68.06,-18.81 138.44,14.67 166.82,79.32 62.09,141.5 121.63,282.95 165.09,431.52 46.83,160.11 78.98,328.04 93.85,494.3 3.67,40.93 -8.72,77.56 -36.47,107.87 -27.75,30.31 -63.14,45.87 -104.24,45.83l-1077.71 -1.13c-77.75,-0.08 -141.09,-63.57 -140.98,-141.32l1.03 -731.37c0.11,-73.35 55.79,-134.02 128.86,-140.39zm-2231.77 -499.72c21.94,10.74 43.7,21.81 65.51,32.81 66.37,33.49 132.27,68.15 199.8,99.27 65.09,30 133.39,54.03 200.15,80.11 15.18,5.93 30.36,11.87 45.52,17.86 72.12,28.49 107.81,110.38 79.6,182.6 -17.11,43.79 -34.3,87.55 -50.84,131.55 -38.08,101.26 -71.81,203.97 -97.66,309.06 -27.67,112.5 -47.93,226.48 -62.52,341.39 -8.1,63.79 -14.69,127.76 -20.85,191.76 -6.99,72.64 -67.49,127.6 -140.46,127.61l-764.68 0.07c-41.48,0 -77.19,-15.91 -104.94,-46.75 -27.74,-30.85 -39.79,-68.04 -35.41,-109.29 13.77,-129.59 40.96,-260.13 74.41,-386.1 30.86,-116.25 68.3,-233.93 114.4,-345.09 23.59,-56.9 50.23,-112.49 77.77,-167.57 34.39,-68.78 70.65,-136.63 108.93,-203.33 37.07,-64.59 75.89,-128.29 118.72,-189.25 5.34,-7.61 10.72,-15.19 16.17,-22.72 40.61,-56.11 114.19,-74.46 176.39,-44z"/>
 </g>
</svg>
