<?xml version="1.0" encoding="UTF-8"?>
<!DOCTYPE svg PUBLIC "-//W3C//DTD SVG 1.1//EN" "http://www.w3.org/Graphics/SVG/1.1/DTD/svg11.dtd">
<!-- Creator: CorelDRAW -->
<svg xmlns="http://www.w3.org/2000/svg" xml:space="preserve" width="8.26772in" height="11.6929in" version="1.1" style="shape-rendering:geometricPrecision; text-rendering:geometricPrecision; image-rendering:optimizeQuality; fill-rule:evenodd; clip-rule:evenodd"
viewBox="0 0 8267.72 11692.91"
 xmlns:xlink="http://www.w3.org/1999/xlink"
 xmlns:xodm="http://www.corel.com/coreldraw/odm/2003">
 <defs>
  <style type="text/css">
   <![CDATA[
    .fil0 {fill:#373435}
   ]]>
  </style>
 </defs>
 <g id="Layer_x0020_1">
  <metadata id="CorelCorpID_0Corel-Layer"/>
  <path class="fil0" d="M4332.48 3678.72l2828.81 1388.72c110.79,54.39 86.86,155.12 -53.17,223.87l-2722.47 1336.52c-140.03,68.74 -345.24,80.49 -456.02,26.11l-2828.81 -1388.72c-110.8,-54.39 -86.87,-155.13 53.17,-223.87l2722.47 -1336.52c140.04,-68.75 345.24,-80.49 456.03,-26.1zm-2605.13 2108.96l0 622.32c80.03,29.91 137.02,107.04 137.02,197.5 0,116.4 -94.37,210.77 -210.77,210.77 -116.4,0 -210.77,-94.37 -210.77,-210.77 0,-90.46 56.99,-167.59 137.02,-197.5l0 -694.74 147.5 72.41zm577.66 283.58l0 1056.13c0,508.89 817.54,921.43 1826.04,921.43 1008.49,0 1826.03,-412.54 1826.04,-921.43l0 -1056.13 -1486.43 729.72c-176.88,86.83 -446.53,114.22 -626.03,26.11l-1539.61 -755.83z"/>
 </g>
</svg>
