<?xml version="1.0" encoding="UTF-8"?>
<!DOCTYPE svg PUBLIC "-//W3C//DTD SVG 1.1//EN" "http://www.w3.org/Graphics/SVG/1.1/DTD/svg11.dtd">
<!-- Creator: CorelDRAW -->
<svg xmlns="http://www.w3.org/2000/svg" xml:space="preserve" width="8.26772in" height="11.6929in" version="1.1" style="shape-rendering:geometricPrecision; text-rendering:geometricPrecision; image-rendering:optimizeQuality; fill-rule:evenodd; clip-rule:evenodd"
viewBox="0 0 8267.72 11692.91"
 xmlns:xlink="http://www.w3.org/1999/xlink"
 xmlns:xodm="http://www.corel.com/coreldraw/odm/2003">
 <defs>
  <style type="text/css">
   <![CDATA[
    .fil0 {fill:#373435}
   ]]>
  </style>
 </defs>
 <g id="Layer_x0020_1">
  <metadata id="CorelCorpID_0Corel-Layer"/>
  <path class="fil0" d="M4674.7 6903.99c-167.9,-40.31 -337.59,-72.8 -504.56,-117.07 -231.77,-61.44 -452.26,-145.11 -638.22,-300.83 -5.5,-4.6 -12.24,-4.9 -18.13,-0.8 -5.89,4.11 -7.93,10.54 -5.51,17.29 34.21,95.3 147.72,178.28 229.75,231.58 136.95,88.98 286.2,161.25 433.38,231.56 173.36,82.81 348.43,162.02 520.99,246.51 167.63,82.07 334.36,168.49 490.51,271.08 207.14,136.09 487.69,358.81 417.4,642.17 -8.51,34.3 -21.59,67.33 -37.66,98.77 -8.31,16.27 -22.78,26.52 -40.87,28.97 -213.14,28.86 -435.3,5.24 -641.69,-52.69 -926.33,-260.03 -1903.86,-755.59 -2477.1,-1552.64 -293.82,-408.53 -461.63,-871.78 -486.06,-1375.2 -29.28,-603.54 150.4,-1197.91 417.4,-1733.44 25.31,-50.77 67.13,-86.08 121.42,-102.52 54.17,-16.41 108.78,-10.21 157.9,17.92 409.24,234.38 841.89,413.71 1278.73,588.85 385.7,154.63 777.85,309.95 1125.65,540.81 381.68,253.35 661.61,570.43 868.59,978.95 278.99,550.63 397.26,1204.04 458.07,1813.88 30.96,310.43 -139.09,579.64 -401.56,734.22 -19.46,11.46 -42.68,9.98 -60.53,-3.84 -17.85,-13.83 -25.08,-35.95 -18.84,-57.65 28.52,-99.24 37.09,-202.31 27.91,-305.06 -55.8,-624.39 -733.82,-1200.02 -1220.86,-1527.2 -10.05,-6.75 -16.76,-15.4 -20.8,-26.81 -16.69,-47.07 -23.58,-101.18 -31.87,-150.43 -14.14,-83.97 -28.63,-168.13 -52.24,-250.06 -57.19,-198.42 -161.02,-360.56 -361.76,-434.48 -6.43,-2.37 -12.22,-0.82 -16.61,4.43 -4.39,5.25 -4.89,11.23 -1.43,17.13 77.43,131.89 177.62,310.31 203.94,460.92 7.1,40.65 9.56,81.62 -2.56,121.65 -4.97,16.42 -16.12,28.46 -32.1,34.69 -15.98,6.23 -32.33,4.91 -47.11,-3.81 -193.42,-114.15 -390.84,-221.24 -574.04,-351.85 -251.41,-179.22 -459.06,-390.57 -641.91,-638.87 -4.05,-5.5 -9.77,-7.41 -16.31,-5.44 -6.56,1.97 -10.26,6.69 -10.62,13.53 -4.74,92.27 17.48,181.42 54.83,265.24 38.63,86.69 92.94,167.22 152.02,241.2 147.74,184.98 334.42,345.96 516.43,496.37 199.69,165.02 405.77,322.15 603.41,489.67 116.64,98.87 232.12,201.19 335.22,314.31 16.24,17.83 18.85,43.13 6.58,63.9 -12.27,20.77 -35.7,30.69 -59.15,25.06z"/>
 </g>
</svg>
