<?xml version="1.0" encoding="UTF-8"?>
<!DOCTYPE svg PUBLIC "-//W3C//DTD SVG 1.1//EN" "http://www.w3.org/Graphics/SVG/1.1/DTD/svg11.dtd">
<!-- Creator: CorelDRAW X7 -->
<svg xmlns="http://www.w3.org/2000/svg" xml:space="preserve" width="210mm" height="297mm" version="1.1" style="shape-rendering:geometricPrecision; text-rendering:geometricPrecision; image-rendering:optimizeQuality; fill-rule:evenodd; clip-rule:evenodd"
viewBox="0 0 21000 29700"
 xmlns:xlink="http://www.w3.org/1999/xlink"
 xmlns:xodm="http://www.corel.com/coreldraw/odm/2003">
 <defs>
  <style type="text/css">
   <![CDATA[
    .str0 {stroke:#373435;stroke-width:17.63}
    .str1 {stroke:#E7C252;stroke-width:7.62}
    .fil0 {fill:#E7C252}
    .fil3 {fill:#E7C252}
    .fil1 {fill:#2C6F9C}
    .fil2 {fill:#FEFEFE}
    .fil4 {fill:#E7C252;fill-rule:nonzero}
   ]]>
  </style>
 </defs>
 <g id="Layer_x0020_1">
  <metadata id="CorelCorpID_0Corel-Layer"/>
  <path class="fil0" d="M17127 1344c157,1318 434,3724 1284,4805 692,880 2094,1194 3123,1458l480 124 119 481c1550,6270 -4110,15360 -9512,18316l-398 218 -399 -218c-5402,-2956 -11062,-12046 -9512,-18316l119 -481 481 -124c1028,-264 2430,-578 3122,-1458 850,-1081 1127,-3487 1284,-4805l165 -1377 1136 795c361,252 929,463 1347,592 724,223 1498,350 2257,350 758,0 1532,-127 2256,-350 418,-129 986,-340 1347,-592l1136 -795 165 1377zm-672 -245l-263 185c-429,300 -1024,525 -1525,679 -787,242 -1621,378 -2444,378 -824,0 -1658,-136 -2445,-378 -501,-154 -1095,-379 -1525,-679l-263 -185 -39 320c-180,1515 -464,3914 -1416,5124 -811,1031 -2255,1371 -3465,1682l-111 29 -28 111c-1479,5982 4057,14790 9199,17603l92 51 93 -51c5141,-2813 10678,-11621 9199,-17603l-28 -111 -111 -29c-1210,-311 -2654,-651 -3465,-1682 -952,-1210 -1236,-3609 -1416,-5124l-39 -320 0 0z"/>
  <path class="fil1 str0" d="M12130 25968c-5142,-2813 -10678,-11621 -9199,-17603l28 -111 111 -29c1210,-311 2654,-651 3465,-1682 952,-1210 1236,-3609 1416,-5124l39 -320 263 185c430,300 1024,525 1525,679 787,242 1621,378 2445,378 823,0 1657,-136 2444,-378 501,-154 1096,-379 1525,-679l263 -185 39 320c180,1515 464,3914 1416,5124 811,1031 2255,1371 3465,1682l111 29 28 111c1479,5982 -4057,14790 -9199,17603l-92 51 -93 -51 0 0z"/>
  <path class="fil0 str1" d="M3702 9046c-90,1006 134,2883 410,3694 557,1637 3362,2914 4539,5358 218,454 369,985 453,1595 -1179,-203 -2032,-2647 -2719,-3635 -522,-49 -967,4 -1511,7 49,860 1455,2554 1993,3091 381,381 877,794 1366,1104 197,125 1598,1019 1748,555 129,-402 9,-1763 -34,-2146 -438,-3901 -1696,-3590 -3657,-5748 -454,-499 -908,-1808 -680,-2416 25,-68 1947,-1361 1999,-1374 17,618 59,785 104,1399 8,106 63,1864 140,1935 200,104 1289,48 1604,53 13,-1075 -399,-9633 -615,-9971 -394,3734 -2410,6083 -5140,6499l0 0z"/>
  <path class="fil2" d="M3983 9298c-8,208 -5,419 3,624 13,337 41,675 79,1010 37,326 84,652 145,974 47,245 103,502 183,738 137,402 430,770 715,1078 385,415 820,795 1240,1174 1002,905 1975,1838 2570,3074 254,527 400,1104 480,1683 14,97 -17,186 -87,254 -71,68 -161,95 -257,79 -1321,-228 -2131,-2546 -2836,-3643 -326,-20 -652,-2 -979,10 286,809 1365,2122 1837,2593 390,390 850,768 1316,1063 224,142 451,277 687,397 115,58 466,225 637,244 45,-243 25,-697 16,-902 -15,-347 -41,-701 -80,-1046 -80,-718 -205,-1490 -462,-2168 -172,-452 -396,-835 -720,-1194 -310,-342 -680,-636 -1033,-931 -487,-407 -939,-818 -1367,-1288 -512,-564 -1015,-1982 -738,-2720 35,-95 112,-152 189,-211 76,-57 155,-113 233,-169 224,-159 451,-315 678,-469 227,-154 454,-307 683,-458 88,-59 324,-227 422,-251 91,-23 178,-5 252,51 74,57 114,136 117,229 12,469 69,919 103,1385 8,103 9,210 13,313 8,195 17,391 27,586 10,203 21,407 37,610 5,54 9,130 17,201 174,18 440,14 548,14 168,-1 338,-7 507,-10 -2,-133 -7,-267 -11,-399 -12,-400 -28,-801 -45,-1201 -44,-1072 -97,-2144 -156,-3215 -53,-969 -110,-1939 -182,-2908 -289,988 -737,1926 -1385,2728 -877,1084 -2038,1808 -3396,2071l0 0z"/>
  <path class="fil3" d="M14432 19833c455,-466 1882,-5940 2172,-6236 169,513 330,2338 493,2522 376,-294 765,-922 1026,-1371 154,741 -348,2765 -571,3511 -455,1527 -1016,2153 -1246,2871 1846,-1231 4723,-8949 4707,-10921 0,-7 0,-13 -1,-20l-1320 -834c-491,498 -1421,2457 -1737,2487 -118,-171 -428,-2498 -607,-3894 -1150,-673 -1734,-1760 -2154,-4169 -321,2638 -262,10150 -382,11858 -105,1375 -371,2830 -380,4196l0 0z"/>
  <path class="fil2" d="M17770 18623c486,-901 911,-1853 1295,-2795 443,-1089 847,-2213 1175,-3342 129,-446 249,-899 341,-1354 48,-241 98,-515 112,-770l-936 -591c-85,115 -164,243 -232,348 -170,269 -332,545 -496,818 -152,255 -308,515 -480,757 -132,185 -321,440 -564,463 -117,11 -224,-38 -291,-136 -89,-130 -141,-450 -170,-606 -61,-337 -113,-676 -163,-1015 -111,-752 -211,-1506 -308,-2261 -585,-372 -1009,-849 -1337,-1478 -137,-264 -254,-546 -355,-839 -10,232 -20,463 -28,694 -44,1182 -68,2364 -87,3546 -19,1126 -31,2252 -50,3378 -8,438 -16,876 -28,1314 -9,302 -18,605 -40,906 -51,700 -144,1400 -226,2101 132,-412 260,-826 386,-1240 206,-667 406,-1337 622,-2002 78,-242 296,-968 467,-1144 80,-81 187,-113 298,-87 111,26 194,101 230,210 61,186 97,401 130,595 44,253 81,508 119,763 32,214 64,429 101,642 230,-293 445,-653 594,-910 68,-115 193,-174 325,-153 132,21 232,117 259,248 170,820 -327,2828 -577,3667 -28,92 -56,183 -86,273z"/>
  <path class="fil4" d="M9579 4764l271 -29 5 51c5,50 13,95 25,136 11,40 25,75 42,106 17,30 38,57 64,81 27,24 58,46 95,65 37,19 76,33 117,43 41,10 86,14 133,14 42,0 81,-3 117,-10 35,-7 68,-18 99,-33 31,-14 57,-30 79,-49 21,-19 39,-39 53,-63 14,-24 25,-49 33,-75 7,-25 10,-52 10,-81 0,-28 -3,-55 -10,-79 -7,-24 -17,-46 -30,-67l0 0c-13,-20 -31,-38 -53,-56 -24,-18 -53,-35 -86,-50 -22,-10 -59,-24 -111,-41 -51,-16 -117,-36 -199,-60 -82,-23 -153,-46 -213,-69 -60,-24 -108,-47 -143,-69l0 0c-46,-29 -86,-61 -120,-97 -35,-36 -64,-76 -87,-119 -23,-44 -40,-89 -52,-137 -11,-48 -17,-98 -17,-151 0,-57 7,-113 21,-168 14,-54 35,-106 62,-156 28,-51 63,-96 104,-135 40,-39 88,-71 141,-98 52,-25 108,-45 167,-58 58,-13 119,-19 182,-19 69,0 135,6 197,20 62,13 120,34 174,61 54,27 103,61 146,102 42,41 78,88 108,142 29,52 51,108 67,168 15,59 24,122 26,188l2 47 -323 30 -4 -50c-6,-62 -18,-116 -37,-162 -18,-44 -42,-81 -72,-110l0 0c-29,-28 -66,-50 -111,-65 -46,-15 -101,-23 -164,-23 -67,0 -124,7 -171,21 -44,14 -80,33 -106,58 -28,27 -49,56 -62,87 -14,31 -20,65 -20,102 0,32 4,61 14,87 9,25 23,47 41,67 18,19 54,40 107,63 57,24 132,49 225,74 96,26 178,50 245,73 68,24 121,46 159,66l1 0c55,31 103,65 145,104 41,39 76,83 103,131l0 0c27,47 47,98 61,153 13,54 20,111 20,172 0,60 -8,119 -22,176 -15,57 -37,112 -66,166 -29,54 -65,102 -107,144 -43,42 -91,78 -146,108 -55,29 -113,52 -174,66 -61,15 -125,23 -192,23 -84,0 -161,-8 -232,-22 -71,-15 -137,-38 -195,-68 -59,-30 -112,-68 -158,-113 -46,-46 -86,-99 -119,-159 -33,-60 -58,-123 -75,-191 -17,-67 -27,-138 -28,-212l-2 -46 46 -5 0 0zm1685 730l0 -2168 441 0c59,212 431,1434 431,1536 15,53 27,99 38,136 11,-41 27,-96 46,-162 0,-90 381,-1309 439,-1510l403 0 0 2218 -327 0 0 -1474 -432 1474 -287 0 -426 -1496 0 1496 -326 0 0 -50 0 0zm1883 -15l694 -2153 330 0 760 2218 -375 0 -206 -642 -676 0 -193 642 -355 0 21 -65 0 0zm627 -904l470 0 -165 -523c-26,-84 -50,-164 -72,-242l-1 -2 -1 4c-17,69 -35,138 -56,205l0 1 -175 557 0 0z"/>
  <path class="fil3" d="M17394 22401c-1322,-930 -2905,-1513 -4618,-1617 -93,-73 -159,-153 -159,-231l0 -1736c6,-10 12,-21 19,-31 24,-37 122,-100 160,-124 112,-71 226,-137 334,-214 286,-202 507,-468 441,-841 -17,-94 -87,-164 -180,-180 -94,-17 -184,25 -232,107 -59,102 -151,264 -258,325 -71,41 -189,63 -298,77 -40,-175 -46,-492 -45,-596 1,-158 10,-318 28,-475 10,-84 26,-213 56,-291 45,-113 51,-228 54,-348 1,-70 0,-157 20,-224 11,-37 29,-58 58,-84 61,-55 122,-96 179,-159 169,-186 183,-368 198,-603 6,-107 9,-179 107,-239 196,-120 432,-161 657,-119 153,29 345,111 431,249 57,92 170,130 271,89 101,-40 158,-144 136,-251 -87,-427 -293,-734 -750,-767 -135,-10 -267,4 -402,8 -40,1 -85,1 -128,-2 45,-168 187,-310 325,-406 101,-71 217,-130 335,-167 52,-16 157,-41 211,-28 106,26 214,-28 257,-128 44,-101 9,-216 -84,-275 -372,-240 -761,-208 -1128,15 -134,82 -255,182 -372,286 -39,35 -82,76 -125,115 0,0 0,0 0,0 47,-57 100,-111 143,-171 106,-147 149,-301 149,-481 0,-237 -117,-473 -276,-644 -133,-143 -302,-250 -489,-295l-393 0c-187,45 -356,152 -489,295 -159,171 -276,407 -276,644 0,180 43,334 149,481 43,60 96,114 143,171 0,0 0,0 0,0 -43,-39 -86,-80 -125,-115 -116,-104 -237,-204 -372,-286 -367,-223 -756,-255 -1128,-15 -92,59 -128,174 -84,275 43,100 151,154 257,128 54,-13 160,12 211,28 118,37 235,96 335,167 138,96 280,238 326,406 -44,3 -89,3 -129,2 -135,-4 -267,-18 -402,-8 -457,33 -662,340 -750,767 -21,107 35,211 136,251 102,41 214,3 272,-89 85,-138 277,-220 430,-249 225,-42 461,-1 657,119 98,60 101,132 107,239 15,235 29,417 198,603 57,63 118,104 179,159 29,26 47,47 58,84 20,67 19,154 20,224 3,120 9,235 54,348 102,260 89,759 80,1038 -10,296 -34,595 -46,893 -41,-71 -102,-127 -175,-175 -64,-41 -135,-74 -196,-117 -140,-102 -131,-262 -107,-419 18,-113 -53,-220 -164,-249 -110,-29 -224,30 -264,137 -130,346 -221,711 84,990 182,166 295,196 365,461 29,113 83,208 173,283 54,46 107,71 164,108 90,58 103,177 111,277l0 752c0,78 -66,158 -159,231 -1713,104 -3296,687 -4618,1617 107,129 216,256 325,382 1375,-955 3045,-1516 4847,-1516 1801,0 3471,561 4846,1516 109,-126 218,-253 325,-382l0 0zm-5172 -7943c-135,0 -244,110 -244,245 0,135 109,244 244,244 135,0 245,-109 245,-244 0,-135 -110,-245 -245,-245z"/>
  <path class="fil4" d="M9450 22064c100,-38 200,-75 300,-110 44,116 88,234 132,355 44,122 88,248 132,375 43,-144 88,-291 131,-438 43,-149 88,-300 131,-452 100,-26 200,-50 301,-73 -71,206 -142,410 -213,611 -71,198 -142,393 -213,585 0,139 0,277 0,416 0,139 0,278 0,417 -92,0 -184,0 -276,0 0,-132 0,-265 0,-398 0,-133 0,-265 0,-398 -71,-162 -141,-318 -212,-469 -70,-146 -142,-286 -213,-421l0 0zm4823 -265c92,27 184,55 276,84 74,328 148,649 223,962 73,304 148,600 223,886 -98,-1 -196,-2 -294,-2 -17,-79 -35,-159 -53,-239 -18,-80 -35,-162 -53,-243 -123,-12 -246,-22 -368,-32 -18,84 -36,169 -53,253 -18,85 -36,171 -54,257 -97,-1 -195,-1 -292,-2 73,-336 148,-667 222,-991 73,-318 148,-629 223,-933l0 0zm283 1215c-16,-89 -31,-178 -47,-268 -15,-90 -31,-180 -47,-271 -21,-122 -36,-236 -46,-343 -3,-1 -7,-2 -11,-3 -10,102 -21,189 -34,262 -4,20 -7,41 -11,63 -15,86 -32,173 -47,260 -16,87 -31,176 -47,264 97,11 193,23 290,36l0 0zm-3459 -1465c165,-25 297,59 394,246 50,98 87,217 112,355 25,139 37,297 37,474 0,168 -11,320 -33,455 -22,135 -55,255 -99,357 -97,224 -236,335 -414,335 -176,0 -312,-106 -410,-313 -44,-95 -78,-205 -100,-330 -23,-124 -34,-264 -34,-420 0,-163 12,-310 36,-443 25,-133 62,-252 111,-357 97,-209 230,-333 400,-359l0 0zm-3 268c-72,10 -130,84 -175,221 -26,78 -46,170 -59,277 -13,106 -19,227 -19,362 0,138 6,259 19,364 13,105 33,194 59,267 44,125 103,187 176,185 72,-1 130,-65 174,-191 27,-76 47,-169 60,-280 14,-110 21,-237 21,-381 0,-160 -9,-299 -25,-416 -16,-116 -40,-211 -73,-282 -43,-92 -96,-135 -158,-126l0 0zm1495 1916c-5,-82 -9,-165 -14,-247 -17,65 -40,118 -70,160 -59,84 -138,125 -233,125 -184,0 -327,-114 -428,-342 -42,-96 -75,-210 -96,-342 -21,-132 -32,-282 -32,-450 0,-172 14,-329 42,-470 28,-142 69,-269 125,-380 107,-214 255,-325 445,-322 168,2 318,111 449,318 -57,70 -113,141 -169,211 -81,-158 -174,-239 -280,-241 -95,-1 -168,68 -221,205 -32,81 -56,178 -71,291 -16,113 -24,243 -24,389 0,138 6,257 16,356 11,99 29,180 50,241 28,79 57,137 86,175 36,46 78,70 127,70 73,0 132,-36 177,-106 32,-49 54,-102 67,-159 9,-40 13,-66 13,-78 0,-85 0,-170 0,-256 -89,-1 -177,-2 -266,-2 0,-90 0,-180 0,-269 177,1 353,5 529,11 0,185 0,371 0,556 0,185 0,371 0,556 -74,0 -148,0 -222,0l0 0zm298 -2188c100,9 200,20 301,32 44,160 87,320 131,479 44,158 88,315 132,472 44,-147 88,-293 132,-438 43,-144 87,-286 131,-426 100,20 200,43 301,66 -71,174 -143,350 -213,530 -72,183 -142,370 -213,559 0,151 0,301 0,452 0,150 0,301 0,451 -92,0 -184,-1 -276,-1 0,-154 0,-307 0,-461 0,-153 0,-307 0,-461 -71,-206 -142,-413 -213,-622 -71,-210 -142,-421 -213,-632l0 0z"/>
  <path class="fil2" d="M11303 14728c364,223 87,587 354,882 103,113 234,156 285,329 54,179 3,388 68,554 199,506 41,1709 41,2367 -101,66 -304,210 -388,-192 -56,-271 -640,-159 -524,-908 -353,943 271,612 456,1317 88,335 407,119 456,715l0 761 343 0 0 -1790c17,-34 35,-68 57,-100 169,-255 999,-463 901,-1017 -253,435 -359,472 -885,528 -194,-234 -147,-1387 -32,-1681 65,-166 14,-375 68,-554 51,-173 182,-216 285,-329 267,-295 -10,-659 354,-882 525,-323 1182,-139 1393,202 -189,-928 -839,-434 -1297,-635 -61,-626 827,-1070 1159,-988 -668,-429 -1221,314 -1476,492 -182,-69 -338,-206 -267,-315 125,-192 308,-273 308,-600 0,-328 -331,-740 -740,-740 -408,0 -739,412 -739,740 0,327 183,408 308,600 71,109 -85,246 -267,315 -255,-178 -809,-922 -1476,-492 332,-82 1220,362 1159,988 -458,201 -1108,-293 -1297,635 211,-341 868,-525 1393,-202l0 0zm919 -492c258,0 467,209 467,467 0,258 -209,467 -467,467 -257,0 -466,-209 -466,-467 0,-258 209,-467 466,-467z"/>
  <polygon class="fil3" points="12026,8124 10532,8124 10532,8517 12026,8517 12026,11945 12419,11945 12419,8517 13913,8517 13913,8124 12419,8124 12419,6630 12026,6630 "/>
 </g>
</svg>
