<?xml version="1.0" encoding="UTF-8"?>
<!DOCTYPE svg PUBLIC "-//W3C//DTD SVG 1.1//EN" "http://www.w3.org/Graphics/SVG/1.1/DTD/svg11.dtd">
<!-- Creator: CorelDRAW -->
<svg xmlns="http://www.w3.org/2000/svg" xml:space="preserve" width="8.26772in" height="11.6929in" version="1.1" style="shape-rendering:geometricPrecision; text-rendering:geometricPrecision; image-rendering:optimizeQuality; fill-rule:evenodd; clip-rule:evenodd"
viewBox="0 0 8267.72 11692.91"
 xmlns:xlink="http://www.w3.org/1999/xlink"
 xmlns:xodm="http://www.corel.com/coreldraw/odm/2003">
 <defs>
  <style type="text/css">
   <![CDATA[
    .str0 {stroke:#373435;stroke-width:6.94;stroke-miterlimit:2.61313}
    .fil2 {fill:#FEFEFE}
    .fil3 {fill:#FEFEFE}
    .fil5 {fill:#FEFEFE}
    .fil1 {fill:#010175}
    .fil0 {fill:#F4830C}
    .fil4 {fill:#F4830C;fill-rule:nonzero}
   ]]>
  </style>
 </defs>
 <g id="Layer_x0020_1">
  <metadata id="CorelCorpID_0Corel-Layer"/>
  <path class="fil0" d="M6061.8 1117.32c61.87,519.1 171.09,1466.37 505.82,1891.93 272.44,346.36 824.37,469.98 1229.19,574.14l189 48.63 46.85 189.44c610.5,2468.49 -1618.11,6047.06 -3744.69,7210.82l-156.91 85.87 -156.91 -85.87c-2126.58,-1163.76 -4355.19,-4742.33 -3744.69,-7210.82l46.85 -189.44 189 -48.63c404.82,-104.17 956.75,-227.78 1229.19,-574.14 334.72,-425.56 443.94,-1372.82 505.82,-1891.93l64.62 -542.14 447.34 313.02c142.04,99.39 365.88,182.5 530.22,233.07 285.32,87.81 589.85,137.73 888.56,137.73 298.71,0 603.24,-49.92 888.56,-137.73 164.35,-50.58 388.18,-133.69 530.22,-233.07l447.34 -313.02 64.62 542.14zm-264.21 -96.16l-103.85 72.67c-168.98,118.24 -403.09,206.63 -600.29,267.31 -309.78,95.34 -638.03,148.83 -962.39,148.83 -324.35,0 -652.61,-53.5 -962.39,-148.83 -197.2,-60.69 -431.31,-149.07 -600.29,-267.31l-103.85 -72.67 -15 125.87c-71.08,596.34 -182.83,1540.71 -557.76,2017.38 -319.33,405.98 -887.86,539.55 -1363.92,662.04l-43.88 11.29 -10.88 43.98c-582.43,2354.95 1597.34,5822.66 3621.54,6930.4l36.43 19.94 36.43 -19.94c2024.2,-1107.74 4203.98,-4575.45 3621.54,-6930.4l-10.88 -43.98 -43.88 -11.29c-476.06,-122.49 -1044.59,-256.06 -1363.92,-662.04 -374.93,-476.67 -486.69,-1421.04 -557.76,-2017.38l-15 -125.87z"/>
  <path class="fil1 str0" d="M4094.62 10812.11c-2024.2,-1107.74 -4203.98,-4575.45 -3621.54,-6930.4l10.88 -43.98 43.88 -11.29c476.06,-122.49 1044.59,-256.06 1363.92,-662.04 374.93,-476.67 486.69,-1421.04 557.76,-2017.38l15 -125.87 103.85 72.67c168.98,118.24 403.09,206.63 600.29,267.31 309.78,95.34 638.03,148.83 962.39,148.83 324.35,0 652.61,-53.5 962.39,-148.83 197.2,-60.69 431.31,-149.07 600.29,-267.31l103.85 -72.67 15 125.87c71.08,596.34 182.83,1540.71 557.76,2017.38 319.33,405.98 887.86,539.55 1363.92,662.04l43.88 11.29 10.88 43.98c582.43,2354.95 -1597.34,5822.66 -3621.54,6930.4l-36.43 19.94 -36.43 -19.94z"/>
  <path class="fil0" d="M776.71 4149.56c-35.55,396.36 52.61,1135.08 161.2,1454.39 219.2,644.52 1323.74,1147.38 1786.85,2109.74 85.98,178.68 145.42,387.55 178.69,627.93 -464.2,-80.08 -800.24,-1042.38 -1070.71,-1431.39 -205.55,-19.34 -380.47,1.61 -594.96,2.71 19.53,338.6 572.9,1005.83 784.65,1217.27 149.98,149.77 345.46,312.6 538.01,434.48 77.48,49.05 629.22,401.18 688.04,218.56 51.02,-158.39 3.82,-694.19 -13.12,-845.04 -172.43,-1535.89 -667.75,-1413.1 -1439.9,-2262.83 -178.6,-196.54 -357.64,-711.78 -267.91,-951.34 10.02,-26.75 766.69,-535.85 787.27,-540.99 6.49,243.52 23.05,309.22 40.87,551 3.08,41.82 24.71,733.94 55.17,761.9 78.68,40.76 507.35,18.58 631.35,20.57 5.05,-423.01 -156.93,-3792.57 -241.92,-3925.37 -155.42,1469.96 -948.78,2394.65 -2023.57,2558.41z"/>
  <path class="fil2" d="M887.35 4248.96c-3.39,81.87 -2.05,164.77 1.04,245.7 5.07,132.77 15.96,265.78 30.96,397.78 14.58,128.22 33.13,256.6 57.33,383.37 18.39,96.32 40.25,197.59 71.85,290.51 53.81,158.21 169.36,303.27 281.63,424.42 151.33,163.3 322.87,312.93 488.04,462.19 394.35,356.33 777.8,723.74 1011.84,1210.09 99.98,207.76 157.62,434.87 189.14,662.58 5.28,38.13 -6.84,73.24 -34.51,100.01 -27.67,26.76 -63.17,37.7 -101.1,31.16 -520.1,-89.72 -839,-1002.41 -1116.46,-1434.37 -128.26,-7.59 -256.89,-0.67 -385.41,3.99 112.41,318.69 537.54,835.67 723.28,1021.14 153.45,153.23 334.39,302.24 517.94,418.43 88.07,55.75 177.7,109.07 270.65,156.34 44.98,22.88 183.4,88.63 250.75,96.07 17.78,-95.66 9.86,-274.58 6.33,-355.37 -5.97,-136.63 -16.16,-275.78 -31.43,-411.76 -31.74,-282.69 -80.78,-586.54 -182.25,-853.56 -67.54,-177.73 -155.75,-328.73 -283.35,-469.83 -121.82,-134.72 -267.63,-250.44 -406.68,-366.8 -191.48,-160.23 -369.69,-321.89 -537.98,-507.09 -201.8,-222.07 -399.8,-780.05 -290.85,-1070.91 13.97,-37.31 44.33,-59.76 74.56,-82.74 30.02,-22.82 60.83,-44.83 91.58,-66.65 88.29,-62.66 177.72,-123.95 267.24,-184.83 89.17,-60.65 178.65,-120.91 268.63,-180.34 34.83,-23 127.57,-89.12 166.41,-98.81 35.55,-8.87 69.8,-1.82 98.98,20.35 29.17,22.17 45.13,53.29 46.1,89.92 4.93,184.83 27.06,361.86 40.6,545.52 2.98,40.46 3.64,82.46 5.3,123.07 3.15,76.91 6.49,153.82 10.37,230.7 4.04,80.03 8.48,160.21 14.81,240.09 1.68,21.18 3.39,51.18 6.38,79.32 68.56,6.82 173.46,5.42 215.97,5.24 66.21,-0.29 133.04,-2.52 199.63,-3.73 -1.06,-52.47 -2.9,-105.04 -4.49,-157.02 -4.83,-157.68 -10.98,-315.35 -17.54,-472.97 -17.54,-421.94 -38.28,-843.87 -61.39,-1265.55 -20.92,-381.65 -43.3,-763.74 -71.66,-1144.98 -114.06,388.72 -290.11,758.23 -545.5,1074.02 -345.06,426.66 -802.34,711.57 -1336.77,815.31z"/>
  <path class="fil0" d="M5001.11 8396.54c178.86,-183.44 740.85,-2338.43 854.86,-2455.2 66.54,201.92 129.86,920.72 194.02,993.05 148.06,-115.76 301.18,-362.97 404.12,-539.93 60.52,291.7 -137.02,1088.81 -224.65,1382.6 -179.27,601.04 -400.15,847.61 -490.81,1129.99 727.04,-484.63 1859.69,-3523.14 1853.16,-4299.47 -0.02,-2.62 -0.11,-5.24 -0.24,-7.85l-519.71 -328.24c-193.24,196.09 -559.54,967.07 -683.94,978.98 -46.26,-67.31 -168.48,-983.54 -238.93,-1532.93 -452.72,-264.95 -682.85,-693.09 -848.15,-1641.53 -126.41,1038.84 -103.19,3996.02 -150.23,4668.61 -41.34,541.43 -146.13,1114.36 -149.51,1651.93z"/>
  <path class="fil3" d="M6315.19 7920.2c191.27,-354.65 358.72,-729.52 509.67,-1100.49 174.48,-428.8 333.55,-871.07 462.69,-1315.75 50.96,-175.49 98.16,-353.94 134.11,-533.15 19.01,-94.76 38.64,-202.58 44.06,-303.13l-368.27 -232.59c-33.36,45.53 -64.81,95.57 -91.2,137.19 -67.19,105.93 -130.72,214.36 -195.27,321.92 -60.16,100.24 -121.52,202.96 -189.33,298.18 -51.68,72.56 -126.05,173.02 -221.84,182.19 -46.3,4.43 -88.28,-15.16 -114.62,-53.5 -35.13,-51.12 -55.5,-177.06 -66.81,-238.78 -24.29,-132.43 -44.52,-266.13 -64.17,-399.33 -43.67,-296.19 -83.02,-593.24 -121.23,-890.22 -230.6,-146.7 -397.34,-334.38 -526.39,-582.07 -54.09,-103.82 -100.09,-215.06 -139.74,-330.15 -4.23,91.09 -7.94,182.2 -11.33,273.29 -17.35,465.04 -26.54,930.64 -34.18,1395.93 -7.27,443.28 -12.29,886.6 -19.72,1329.88 -2.89,172.5 -6.09,345.06 -11.06,517.51 -3.42,118.56 -6.99,238.22 -15.6,356.52 -20.06,275.55 -56.88,551.35 -88.93,827.34 52.07,-162.36 102.14,-325.46 152.11,-488.15 80.76,-262.89 159.84,-526.7 244.5,-788.35 30.83,-95.28 116.77,-381.26 184.13,-450.25 31.3,-32.06 73.68,-44.47 117.33,-34.36 43.65,10.11 76.26,39.89 90.28,82.44 24.14,73.24 38.5,158.23 51.5,234.31 17.05,99.85 31.66,200.2 46.65,300.37 12.62,84.33 25.12,169 40.02,253.02 90.44,-115.32 174.94,-257.04 233.82,-358.26 26.49,-45.54 75.77,-68.82 127.76,-60.37 52,8.45 91.36,46.15 102.06,97.73 66.96,322.76 -128.7,1113.13 -227.26,1443.56 -10.82,36.28 -22.06,72.09 -33.74,107.52z"/>
  <path class="fil4" d="M3090.28 2464.04l106.78 -11.43 1.92 19.79c1.92,19.75 5.14,37.7 9.66,53.86 4.35,15.56 9.96,29.44 16.82,41.65 6.59,11.69 15,22.23 25.15,31.63 10.37,9.61 22.82,18.22 37.31,25.83 14.44,7.47 29.8,13.11 46.05,16.86 16.34,3.77 33.77,5.68 52.27,5.68 16.66,0 32.02,-1.41 46.08,-4.22 13.86,-2.78 26.94,-7.03 39.23,-12.76 11.98,-5.59 22.29,-12.09 30.91,-19.5 8.38,-7.2 15.35,-15.43 20.9,-24.64 5.72,-9.44 10,-19.28 12.83,-29.46 2.8,-10.06 4.21,-20.68 4.21,-31.82 0,-11.35 -1.34,-21.79 -4,-31.34 -2.63,-9.4 -6.57,-18.15 -11.81,-26.25l-0.04 0.02c-5.15,-7.85 -12.13,-15.2 -20.93,-22.04 -9.44,-7.33 -20.74,-14 -33.87,-19.99 -8.56,-3.9 -23.09,-9.19 -43.57,-15.85 -20.15,-6.56 -46.3,-14.44 -78.41,-23.64 -32.23,-9.22 -60.13,-18.36 -83.71,-27.43 -23.87,-9.18 -42.72,-18.14 -56.57,-26.9l0.02 -0.04c-18.15,-11.38 -33.92,-24.09 -47.32,-38.09 -13.74,-14.36 -25.13,-30.1 -34.15,-47.18 -9.04,-17.02 -15.79,-34.93 -20.23,-53.65 -4.48,-18.87 -6.7,-38.68 -6.7,-59.35 0,-22.79 2.74,-44.83 8.18,-66.14 5.43,-21.26 13.6,-41.79 24.46,-61.54 11.07,-20.15 24.6,-37.87 40.67,-53.13 16.09,-15.28 34.67,-28.11 55.77,-38.5 20.57,-10.17 42.4,-17.81 65.46,-22.93 23.05,-5.12 46.97,-7.68 71.74,-7.68 27.33,0 53.18,2.64 77.52,7.93 24.37,5.31 47.24,13.33 68.55,24.07 21.55,10.72 40.7,24.17 57.45,40.26 16.7,16.06 30.88,34.66 42.51,55.79 11.4,20.61 20.18,42.72 26.35,66.28 6.11,23.31 9.59,47.98 10.45,73.97l0.61 18.46 -127.04 11.63 -1.76 -19.63c-2.17,-24.19 -6.96,-45.41 -14.35,-63.61 -7.05,-17.35 -16.47,-31.76 -28.24,-43.2l-0.07 -0.07c-11.54,-11.3 -26.09,-19.83 -43.62,-25.61 -18.34,-6.06 -39.94,-9.07 -64.77,-9.07 -26.2,0 -48.6,2.78 -67.16,8.33 -17.44,5.22 -31.44,12.85 -41.95,22.9 -10.89,10.4 -19.03,21.76 -24.39,34.09 -5.29,12.16 -7.95,25.56 -7.95,40.2 0,12.64 1.87,24.01 5.58,34.09 3.64,9.88 9.09,18.71 16.35,26.48 7.11,7.62 21.11,15.91 42.03,24.8 22.3,9.48 51.77,19.17 88.43,28.99 38.04,10.29 70.22,19.93 96.52,28.94 26.89,9.21 47.83,17.85 62.81,25.94l0.15 0.08c21.72,11.94 40.76,25.54 57.04,40.82 16.39,15.38 29.98,32.55 40.72,51.56l0.04 -0.02c10.59,18.64 18.52,38.73 23.79,60.25 5.24,21.37 7.85,43.93 7.85,67.65 0,23.85 -2.86,46.96 -8.58,69.41 -5.69,22.28 -14.3,43.99 -25.84,65.17 -11.61,21.3 -25.7,40.24 -42.32,56.8 -16.58,16.52 -35.69,30.69 -57.34,42.47 -21.5,11.7 -44.3,20.47 -68.41,26.3 -24.15,5.85 -49.43,8.77 -75.84,8.77 -32.78,0 -63.17,-2.92 -91.11,-8.72 -28.19,-5.85 -53.8,-14.7 -76.81,-26.51 -23.29,-11.91 -43.99,-26.8 -62.13,-44.69 -18.17,-17.91 -33.76,-38.74 -46.8,-62.5 -12.98,-23.45 -22.87,-48.48 -29.7,-75.08 -6.78,-26.4 -10.49,-54.3 -11.17,-83.65l-0.42 -18 17.95 -1.92zm663.43 287.41l0 -853.59 173.52 0c23.45,83.55 169.73,564.43 169.73,604.75 5.84,20.94 10.77,38.73 14.83,53.58 4.63,-16.33 10.79,-37.8 18.35,-64.02 0,-35.42 149.76,-515.17 172.76,-594.31l158.5 0 0 873.27 -128.41 0 0 -580.37 -170.14 580.37 -113.03 0 -167.7 -589.13 0 589.13 -128.41 0 0 -19.69zm741.24 -6l273.17 -847.59 130.24 0 298.87 873.27 -147.48 0 -81.05 -252.73 -266.12 0 -76 252.73 -139.91 0 8.28 -25.68zm247.03 -356.1l185.13 0 -64.97 -205.66c-10.33,-33 -19.91,-64.83 -28.71,-95.32l-0.21 -0.74 -0.35 1.48c-6.55,27.2 -13.91,54.14 -22.08,80.83l0 0.15 -68.8 219.25z"/>
  <path class="fil0" d="M6167.2 9407.51c-520.49,-366.1 -1143.99,-595.61 -1818.39,-636.5 -36.31,-28.57 -62.6,-60.14 -62.6,-91.15l0 -683.16c2.37,-4.17 4.88,-8.27 7.54,-12.26 9.74,-14.64 48.29,-39.29 63.26,-48.85 43.9,-28.05 88.75,-53.95 131.35,-84.1 112.76,-79.8 199.61,-184.24 173.54,-331.33 -6.54,-36.88 -34.06,-64.41 -70.94,-70.94 -36.89,-6.54 -72.19,9.85 -91.01,42.24 -23.39,40.26 -59.65,104.02 -101.59,127.97 -28.17,16.09 -74.74,24.69 -117.43,30.19 -15.75,-68.83 -18.3,-193.46 -17.93,-234.46 0.56,-62.24 3.94,-125.33 11.18,-187.17 3.84,-32.87 10.05,-83.67 22.13,-114.46 17.48,-44.55 19.99,-89.9 21.02,-137.08 0.59,-27.39 0.14,-61.82 7.96,-88.13 4.39,-14.76 11.56,-23 22.9,-33.11 24.15,-21.54 48,-37.82 70.36,-62.48 66.63,-73.47 72.19,-144.82 77.94,-237.58 2.62,-42.22 3.77,-70.27 42.35,-93.96 77.07,-47.33 169.97,-63.45 258.69,-46.74 60.1,11.32 135.83,43.36 169.36,97.69 22.5,36.45 66.94,51.2 106.77,35.43 39.83,-15.77 62.13,-56.95 53.56,-98.93 -34.34,-168.36 -115.12,-288.98 -295.03,-302.05 -53.13,-3.86 -105.3,1.71 -158.27,3.14 -16.06,0.43 -33.45,0.56 -50.71,-0.87 17.88,-66.11 73.91,-122.01 128,-159.83 39.71,-27.77 85.74,-51.26 132.09,-65.6 20.2,-6.25 61.78,-16.41 82.92,-11.2 41.92,10.33 84.32,-10.75 101.39,-50.4 17.07,-39.65 3.24,-84.94 -33.07,-108.29 -146.57,-94.25 -299.78,-81.89 -444.36,6.18 -52.8,32.17 -100.44,71.37 -146.38,112.55 -15.26,13.67 -32.05,30.01 -49.07,45.31 -0.05,-0.03 -0.09,-0.06 -0.14,-0.09 18.5,-22.47 39.42,-43.82 56.45,-67.45 41.61,-57.73 58.64,-118.42 58.64,-189.39 0,-93.26 -46.09,-186.26 -108.69,-253.56 -52.27,-56.2 -118.91,-98.21 -192.72,-115.87l-154.39 0c-73.81,17.67 -140.45,59.67 -192.72,115.87 -62.59,67.3 -108.69,160.3 -108.69,253.56 0,70.98 17.03,131.67 58.64,189.39 17.03,23.63 37.95,44.98 56.45,67.45 -0.05,0.03 -0.09,0.06 -0.14,0.09 -17.02,-15.3 -33.81,-31.64 -49.07,-45.31 -45.94,-41.17 -93.58,-80.38 -146.38,-112.55 -144.57,-88.07 -297.79,-100.43 -444.36,-6.18 -36.31,23.35 -50.14,68.63 -33.07,108.29 17.07,39.65 59.47,60.73 101.39,50.4 21.14,-5.21 62.72,4.95 82.92,11.2 46.35,14.35 92.39,37.83 132.09,65.6 54.08,37.82 110.11,93.72 128,159.83 -17.26,1.42 -34.66,1.3 -50.71,0.87 -52.98,-1.43 -105.15,-7 -158.27,-3.14 -179.91,13.07 -260.69,133.69 -295.03,302.05 -8.56,41.97 13.74,83.15 53.56,98.93 39.82,15.77 84.27,1.02 106.77,-35.43 33.53,-54.33 109.26,-86.37 169.36,-97.69 88.72,-16.71 181.62,-0.59 258.69,46.74 38.58,23.7 39.73,51.74 42.35,93.96 5.75,92.76 11.31,164.11 77.94,237.58 22.36,24.66 46.21,40.94 70.36,62.48 11.33,10.11 18.51,18.35 22.9,33.11 7.82,26.31 7.37,60.74 7.96,88.13 1.03,47.17 3.53,92.53 21.01,137.08 40.15,102.31 35,298.74 31.41,408.76 -3.81,116.61 -13.06,234.32 -18.02,351.43 -15.98,-28.04 -40.02,-50.12 -68.91,-68.78 -25.03,-16.17 -52.93,-29.03 -76.98,-46.32 -55.34,-39.79 -51.86,-102.8 -42.25,-164.83 6.91,-44.57 -20.75,-86.72 -64.38,-98.13 -43.63,-11.41 -88.38,11.8 -104.19,54.04 -51,136.33 -86.92,279.94 33.29,389.79 71.44,65.28 116.05,77.17 143.43,181.59 11.63,44.35 33,81.85 68.28,111.52 21.15,17.8 41.91,27.66 64.54,42.22 35.48,22.83 40.58,69.94 43.87,109.28l0 295.77c0,31 -26.29,62.57 -62.6,91.15 -674.41,40.89 -1297.9,270.4 -1818.39,636.5 42.35,50.86 85.09,101.06 128.19,150.57 541.22,-376.26 1198.83,-596.82 1907.96,-596.82 709.12,0 1366.73,220.56 1907.96,596.82 43.09,-49.51 85.83,-99.71 128.19,-150.56zm-2036.15 -3126.88c-53.15,0 -96.19,43.04 -96.19,96.19 0,53.15 43.04,96.18 96.19,96.18 53.15,0 96.19,-43.03 96.19,-96.18 0,-53.15 -43.04,-96.19 -96.19,-96.19z"/>
  <path class="fil4" d="M3039.6 9275.04c39.29,-14.99 78.58,-29.52 118.09,-43.51 17.24,45.69 34.62,92.25 51.73,139.8 17.37,48.28 34.71,97.57 52.17,147.62 17.02,-56.78 34.57,-114.34 51.52,-172.42 17.11,-58.65 34.49,-118 51.73,-178.05 39.3,-9.9 78.81,-19.53 118.31,-28.52 -27.94,81.21 -55.69,161.22 -83.82,240.37 -27.74,78.01 -55.88,154.88 -83.82,230.46 0,54.59 0,109.19 0,163.87 0,54.6 0,109.28 0,163.88 -36.24,0.09 -72.47,0.27 -108.49,0.37 0,-52.32 0,-104.56 0,-156.79 0,-52.33 0,-104.56 0,-156.88 -27.94,-63.5 -55.71,-125.09 -83.82,-184.41 -27.33,-57.69 -55.88,-112.55 -83.6,-165.79zm1898.68 -104.46c36.24,10.54 72.47,21.53 108.71,33.06 29.25,129.27 58.12,255.54 87.75,378.63 28.87,119.91 58.5,236.28 87.76,349.1 -38.64,-0.36 -77.06,-0.73 -115.48,-1 -6.99,-31.07 -13.99,-62.41 -20.96,-93.93 -7,-31.7 -13.97,-63.68 -20.96,-95.84 -48.46,-4.45 -96.7,-8.54 -144.94,-12.35 -6.99,33.07 -14,66.31 -20.96,99.56 -7.01,33.51 -13.97,67.22 -20.96,100.93 -38.42,-0.19 -76.84,-0.37 -115.26,-0.55 29.03,-132.35 58.24,-262.59 87.53,-390.26 28.76,-125.33 58.5,-247.72 87.75,-367.36zm111.33 478.19c-6.11,-34.98 -12.24,-70.04 -18.34,-105.38 -6.12,-35.43 -12.09,-70.97 -18.33,-106.74 -8.38,-47.99 -14.41,-92.84 -18.12,-134.99 -1.53,-0.36 -3.06,-0.73 -4.37,-1.09 -3.93,39.97 -8.44,74.37 -13.54,102.92 -1.45,8.15 -2.62,16.3 -4.15,24.8 -6.11,34.01 -12.68,68.13 -18.78,102.46 -6.13,34.52 -12.22,69.22 -18.33,104.11 37.98,4.36 75.96,8.99 113.95,13.9zm-1361.47 -576.57c64.71,-9.94 116.69,23.26 154.77,96.83 19.98,38.61 34.28,85.39 44.09,139.81 9.83,54.5 14.84,116.73 14.84,186.68 0,66.04 -4.59,125.9 -13.1,179.13 -8.51,53.23 -21.67,100.09 -39.07,140.26 -38.26,88.28 -92.78,131.9 -162.85,131.9 -69.2,0 -122.83,-41.37 -161.31,-123 -17.61,-37.36 -30.98,-80.67 -39.73,-129.81 -8.71,-48.96 -13.32,-104.2 -13.32,-165.69 0,-63.95 4.82,-121.91 14.41,-174.23 9.62,-52.5 24.33,-99.25 43.44,-140.44 38.3,-82.53 90.69,-131.12 157.82,-141.44zm-1.31 105.46c-28.38,3.9 -51.15,33.03 -68.98,87.12 -10.11,30.66 -18.11,66.95 -23.14,108.83 -5.02,41.79 -7.64,89.39 -7.64,142.8 0,54.24 2.62,101.93 7.64,143.17 5.02,41.24 12.93,76.29 23.14,105.01 17.51,49.22 40.39,73.58 69.41,73.03 28.16,-0.53 51.01,-25.56 68.55,-75.13 10.62,-30.02 18.33,-66.85 23.57,-110.28 5.24,-43.42 8.07,-93.56 8.07,-150.16 0,-63.13 -3.48,-117.83 -9.82,-163.7 -6.32,-45.69 -15.79,-82.92 -28.81,-111 -16.88,-36.41 -37.56,-53.06 -62,-49.69zm588.51 754.17c-1.96,-32.25 -3.71,-64.59 -5.46,-97.02 -6.55,25.43 -15.71,46.58 -27.5,63.13 -23.35,32.77 -54.35,48.87 -91.9,48.87 -72.47,0 -128.54,-44.8 -168.3,-134.44 -16.77,-37.8 -29.69,-82.76 -37.98,-134.72 -8.29,-51.87 -12.44,-110.83 -12.44,-177.05 0,-67.76 5.48,-129.54 16.37,-185.13 10.93,-55.77 27.34,-105.8 49.33,-149.7 42.18,-84.19 100.42,-127.82 175.07,-126.81 66.37,0.9 125.3,43.97 176.82,125.45 -22.27,27.52 -44.53,55.23 -66.58,82.94 -31.87,-62.23 -68.54,-94.22 -110.24,-94.84 -37.32,-0.56 -66.24,26.76 -87.1,80.67 -12.32,31.84 -21.84,69.95 -27.94,114.46 -6.11,44.6 -9.17,95.66 -9.17,153.16 0,54.41 2.19,101.11 6.33,140.26 4.14,39.15 11.13,70.78 19.64,94.93 10.92,30.99 22.14,53.98 33.84,69.04 14.06,18.09 30.78,27.31 49.99,27.34 28.81,0.06 51.81,-13.98 69.63,-41.51 12.52,-19.35 21.18,-40.43 26.2,-62.86 3.49,-15.62 5.24,-25.98 5.24,-30.7 0,-33.52 0,-67.04 0,-100.56 -34.93,-0.45 -69.85,-0.82 -104.56,-1 0,-35.33 0,-70.67 0,-106.01 69.41,0.64 138.83,2.19 208.25,4.45 0,73.04 0,146.07 0,218.93 0,72.94 0,145.98 0,218.83 -29.25,0 -58.5,-0.09 -87.54,-0.09zm117.44 -861.27c39.29,3.63 78.8,7.91 118.31,12.72 17.25,63.04 34.47,125.73 51.74,188.31 17.22,62.42 34.49,124.37 51.95,186.04 17.24,-58.04 34.43,-115.48 51.74,-172.51 17.18,-56.61 34.49,-112.55 51.74,-167.78 39.29,8.08 78.8,16.98 118.31,26.25 -27.94,68.22 -56.11,137.63 -83.83,208.57 -28.17,72.13 -55.88,145.62 -83.82,220.2 0,59.23 0,118.46 0,177.69 0,59.23 0,118.46 0,177.69 -36.24,-0.18 -72.47,-0.28 -108.49,-0.46 0,-60.5 0,-121 0,-181.41 0,-60.5 0,-121 0,-181.5 -27.94,-81.12 -55.93,-162.78 -83.82,-245.09 -27.98,-82.56 -55.88,-165.6 -83.82,-248.72z"/>
  <path class="fil5" d="M3769.11 6386.56c143.14,87.91 34.22,231.44 139.33,347.34 40.53,44.69 92.08,61.34 112.33,129.47 21,70.67 1.01,153.07 26.55,218.17 78.23,199.35 16.15,672.89 16.15,932.13 -39.79,26 -119.44,82.54 -152.62,-75.81 -22.32,-106.58 -252.04,-62.63 -206.35,-357.48 -138.89,371.26 106.67,241.13 179.41,518.48 34.64,132.1 160.2,46.88 179.56,281.62l0 299.39 135.15 0 0 -704.37c6.49,-13.74 13.83,-26.99 22.21,-39.58 66.67,-100.19 393.53,-182.12 354.82,-400.48 -99.53,171.31 -141.32,186 -348.37,208.19 -76.38,-92.43 -57.92,-546.41 -12.51,-662.09 25.54,-65.1 5.55,-147.5 26.55,-218.17 20.25,-68.13 71.8,-84.78 112.33,-129.47 105.11,-115.89 -3.81,-259.43 139.33,-347.34 206.89,-127.05 465.58,-54.61 548.4,79.58 -74.48,-365.15 -330.22,-170.73 -510.44,-250.06 -24.28,-246.16 325.65,-421.06 456.2,-388.89 -262.8,-168.99 -480.6,123.87 -581.27,193.89 -71.63,-27.07 -133.07,-81.18 -105.1,-124.03 49.45,-75.77 121.3,-107.36 121.3,-236.42 0,-129.06 -130.3,-291.03 -291.03,-291.03 -160.73,0 -291.03,161.97 -291.03,291.03 0,129.06 71.85,160.65 121.3,236.42 27.96,42.85 -33.47,96.96 -105.1,124.03 -100.67,-70.02 -318.48,-362.89 -581.27,-193.89 130.54,-32.17 480.47,142.73 456.2,388.89 -180.23,79.33 -435.96,-115.09 -510.44,250.06 82.82,-134.19 341.51,-206.63 548.4,-79.58zm361.94 -193.5c101.49,0 183.76,82.27 183.76,183.76 0,101.49 -82.27,183.76 -183.76,183.76 -101.49,0 -183.76,-82.27 -183.76,-183.76 0,-101.49 82.27,-183.76 183.76,-183.76z"/>
  <polygon class="fil0" points="4053.87,3786.91 3465.35,3786.91 3465.35,3941.27 4053.87,3941.27 4053.87,5291.21 4208.24,5291.21 4208.24,3941.27 4796.75,3941.27 4796.75,3786.91 4208.24,3786.91 4208.24,3198.39 4053.87,3198.39 "/>
 </g>
</svg>
