<?xml version="1.0" encoding="UTF-8"?>
<!DOCTYPE svg PUBLIC "-//W3C//DTD SVG 1.1//EN" "http://www.w3.org/Graphics/SVG/1.1/DTD/svg11.dtd">
<!-- Creator: CorelDRAW -->
<svg xmlns="http://www.w3.org/2000/svg" xml:space="preserve" width="8.26772in" height="11.6929in" version="1.1" style="shape-rendering:geometricPrecision; text-rendering:geometricPrecision; image-rendering:optimizeQuality; fill-rule:evenodd; clip-rule:evenodd"
viewBox="0 0 8267.72 11692.91"
 xmlns:xlink="http://www.w3.org/1999/xlink"
 xmlns:xodm="http://www.corel.com/coreldraw/odm/2003">
 <defs>
  <style type="text/css">
   <![CDATA[
    .fil0 {fill:#373435}
   ]]>
  </style>
 </defs>
 <g id="Layer_x0020_1">
  <metadata id="CorelCorpID_0Corel-Layer"/>
  <path class="fil0" d="M1863.26 5261.22c77.61,1500.77 1510.14,2577.55 2016.85,2809.46 86.78,39.72 170.35,55.33 250.94,51.81 80.59,3.52 164.16,-12.09 250.94,-51.81 506.71,-231.91 1939.24,-1308.69 2016.85,-2809.46 49.57,-692.95 -294.59,-1338.06 -842.15,-1587.87 -425.14,-193.96 -923.04,-110.92 -1281.08,222.95 -97.76,91.16 -122.17,132.74 -144.56,130.85 -22.39,1.89 -46.8,-39.69 -144.56,-130.85 -358.05,-333.87 -855.94,-416.91 -1281.08,-222.95 -547.56,249.8 -891.71,894.92 -842.15,1587.87z"/>
 </g>
</svg>
