<?xml version="1.0" encoding="UTF-8"?>
<!DOCTYPE svg PUBLIC "-//W3C//DTD SVG 1.1//EN" "http://www.w3.org/Graphics/SVG/1.1/DTD/svg11.dtd">
<!-- Creator: CorelDRAW -->
<svg xmlns="http://www.w3.org/2000/svg" xml:space="preserve" width="8.26772in" height="11.6929in" version="1.1" style="shape-rendering:geometricPrecision; text-rendering:geometricPrecision; image-rendering:optimizeQuality; fill-rule:evenodd; clip-rule:evenodd"
viewBox="0 0 8267.72 11692.91"
 xmlns:xlink="http://www.w3.org/1999/xlink"
 xmlns:xodm="http://www.corel.com/coreldraw/odm/2003">
 <defs>
  <style type="text/css">
   <![CDATA[
    .fil0 {fill:#373435}
   ]]>
  </style>
 </defs>
 <g id="Layer_x0020_1">
  <metadata id="CorelCorpID_0Corel-Layer"/>
  <path class="fil0" d="M4983.21 4933.38l1738.29 -3.34c147.54,-0.28 273.03,90.7 318.62,231.03 45.59,140.32 -2.44,287.69 -121.98,374.19l-1408.26 1019.04 540.33 1652.18c45.86,140.24 -1.89,287.7 -121.26,374.42 -119.37,86.72 -274.37,86.57 -393.57,-0.38l-1404.34 -1024.44 -1404.34 1024.44c-119.2,86.95 -274.2,87.1 -393.57,0.38 -119.37,-86.72 -167.12,-234.19 -121.26,-374.42l540.33 -1652.18 -1408.26 -1019.04c-119.54,-86.5 -167.57,-233.87 -121.98,-374.19 45.59,-140.33 171.08,-231.31 318.62,-231.03l1738.29 3.34 533.98 -1654.24c45.33,-140.41 170.63,-231.64 318.18,-231.64 147.55,0 272.85,91.23 318.18,231.64l533.98 1654.24z"/>
 </g>
</svg>
